<?xml version="1.0" encoding="utf-8"?>
<!-- Generator: Adobe Illustrator 22.1.0, SVG Export Plug-In . SVG Version: 6.00 Build 0)  -->
<svg version="1.0" id="レイヤー_1" xmlns="http://www.w3.org/2000/svg" xmlns:xlink="http://www.w3.org/1999/xlink" x="0px"
	 y="0px" viewBox="0 0 600 155" style="enable-background:new 0 0 600 155;" xml:space="preserve">
<style type="text/css">
	.st0{fill:#F9BE00;}
	.st1{fill:#D70C18;}
	.st2{fill:#E95504;}
</style>
<g>
	<g>
		<path class="st0" d="M561.283,151.999c19.891,0,36.165-16.274,36.165-36.165V39.167c0-19.891-16.274-36.166-36.165-36.166H38.717
			c-19.891,0-36.165,16.275-36.165,36.166v76.667c0,19.891,16.274,36.165,36.165,36.165H561.283z"/>
		<path class="st1" d="M561.283,154.551H38.717C17.369,154.551,0,137.182,0,115.834V39.167C0,17.818,17.369,0.449,38.717,0.449
			h522.566C582.631,0.449,600,17.818,600,39.167v76.667C600,137.182,582.631,154.551,561.283,154.551z M38.717,5.553
			c-18.535,0-33.614,15.079-33.614,33.614v76.667c0,18.535,15.079,33.614,33.614,33.614h522.566
			c18.535,0,33.614-15.079,33.614-33.614V39.167c0-18.535-15.079-33.614-33.614-33.614H38.717z"/>
	</g>
	<g>
		<path class="st1" d="M53.556,117.631v2.986c0,0.102-0.051,0.128-0.153,0.077c-1.021-1.123-2.323-1.685-3.905-1.685
			c-0.638,0-1.244,0.109-1.818,0.326c-0.702,0.268-1.279,0.727-1.733,1.378c-0.453,0.651-0.705,1.366-0.756,2.143
			c-0.051,0.804,0.147,1.561,0.593,2.269c0.447,0.709,1.04,1.222,1.78,1.541c0.6,0.243,1.238,0.364,1.914,0.364
			c1.62,0,2.929-0.593,3.924-1.78c0.051-0.013,0.086,0.001,0.105,0.039c0.02,0.039,0.029,0.077,0.029,0.115v3.024
			c-1.174,0.74-2.546,1.11-4.115,1.11c-1.378,0-2.574-0.3-3.589-0.9c-1.015-0.6-1.812-1.397-2.393-2.393
			c-0.581-0.996-0.884-2.067-0.909-3.216c-0.026-1.11,0.249-2.163,0.823-3.158c0.548-0.944,1.314-1.736,2.297-2.374
			c1.059-0.676,2.38-1.002,3.962-0.976c0.637,0.013,1.301,0.096,1.99,0.249C52.51,116.987,53.161,117.274,53.556,117.631z"/>
		<path class="st1" d="M88.382,125.843c-0.779,0.779-1.716,1.167-2.813,1.167c-1.11,0-2.051-0.389-2.823-1.167
			c-0.772-0.779-1.158-1.723-1.158-2.833c0-1.098,0.386-2.035,1.158-2.814c0.772-0.779,1.713-1.168,2.823-1.168
			c1.097,0,2.035,0.389,2.813,1.168c0.779,0.779,1.168,1.716,1.168,2.814C89.55,124.119,89.16,125.064,88.382,125.843z
			 M90.229,118.387c-1.282-1.282-2.83-1.924-4.642-1.924c-1.825,0-3.379,0.641-4.661,1.924c-1.282,1.282-1.923,2.829-1.923,4.642
			c0,1.825,0.641,3.378,1.923,4.661c1.282,1.283,2.837,1.924,4.661,1.924c1.812,0,3.359-0.641,4.642-1.924
			c1.282-1.282,1.924-2.836,1.924-4.661C92.153,121.216,91.512,119.669,90.229,118.387z"/>
		<path class="st1" d="M130.502,116.788v12.461c0,0.064-0.032,0.096-0.096,0.096h-2.316c-0.077,0-0.115-0.026-0.115-0.077v-8.728
			l-3.866,4.728l-3.79-4.728v8.69c0,0.077-0.032,0.115-0.096,0.115h-2.316c-0.077,0-0.115-0.026-0.115-0.077v-12.46
			c0-0.064,0.039-0.096,0.115-0.096h2.259c0.038,0,0.09,0.045,0.153,0.134l3.848,4.651l3.943-4.785h2.297
			C130.47,116.712,130.502,116.738,130.502,116.788z"/>
		<path class="st1" d="M160.589,116.808v12.441c0,0.064-0.032,0.096-0.096,0.096h-2.316c-0.077,0-0.115-0.026-0.115-0.077v-12.46
			c0-0.064,0.039-0.096,0.115-0.096h2.316C160.557,116.712,160.589,116.745,160.589,116.808z"/>
		<path class="st1" d="M198.792,117.631v2.986c0,0.102-0.051,0.128-0.153,0.077c-1.021-1.123-2.322-1.685-3.905-1.685
			c-0.638,0-1.244,0.109-1.818,0.326c-0.702,0.268-1.279,0.727-1.733,1.378c-0.453,0.651-0.705,1.366-0.755,2.143
			c-0.051,0.804,0.147,1.561,0.593,2.269c0.447,0.709,1.04,1.222,1.78,1.541c0.6,0.243,1.238,0.364,1.914,0.364
			c1.62,0,2.928-0.593,3.924-1.78c0.051-0.013,0.086,0.001,0.105,0.039c0.02,0.039,0.029,0.077,0.029,0.115v3.024
			c-1.174,0.74-2.546,1.11-4.115,1.11c-1.378,0-2.574-0.3-3.589-0.9c-1.015-0.6-1.812-1.397-2.393-2.393
			c-0.58-0.996-0.884-2.067-0.909-3.216c-0.026-1.11,0.249-2.163,0.823-3.158c0.549-0.944,1.314-1.736,2.297-2.374
			c1.059-0.676,2.38-1.002,3.962-0.976c0.638,0.013,1.301,0.096,1.99,0.249C197.746,116.987,198.397,117.274,198.792,117.631z"/>
		<path class="st1" d="M249.074,116.788v2.355c0,0.064-0.039,0.096-0.115,0.096h-3.656l0.02,10.011c0,0.064-0.039,0.096-0.115,0.096
			h-2.316c-0.077,0-0.114-0.026-0.114-0.077l0.019-10.03c0,0-1.231,0-3.694,0c-0.077,0-0.115-0.026-0.115-0.077v-2.354
			c0-0.064,0.038-0.096,0.115-0.096h9.877C249.042,116.712,249.074,116.738,249.074,116.788z"/>
		<path class="st1" d="M284.089,125.843c-0.779,0.779-1.717,1.167-2.814,1.167c-1.11,0-2.051-0.389-2.823-1.167
			c-0.773-0.779-1.158-1.723-1.158-2.833c0-1.098,0.386-2.035,1.158-2.814c0.771-0.779,1.713-1.168,2.823-1.168
			c1.097,0,2.035,0.389,2.814,1.168c0.779,0.779,1.168,1.716,1.168,2.814C285.257,124.119,284.868,125.064,284.089,125.843z
			 M285.936,118.387c-1.282-1.282-2.829-1.924-4.641-1.924c-1.825,0-3.379,0.641-4.661,1.924c-1.282,1.282-1.924,2.829-1.924,4.642
			c0,1.825,0.642,3.378,1.924,4.661c1.282,1.283,2.837,1.924,4.661,1.924c1.812,0,3.359-0.641,4.641-1.924
			c1.283-1.282,1.924-2.836,1.924-4.661C287.86,121.216,287.219,119.669,285.936,118.387z"/>
		<path class="st1" d="M317.845,119.277c0.459,0.102,0.766,0.351,0.919,0.747c0.064,0.14,0.096,0.3,0.096,0.478
			c0,0.332-0.096,0.593-0.287,0.784c-0.23,0.256-0.568,0.409-1.015,0.459c-0.153,0.026-0.536,0.033-1.148,0.02v-2.565h0.153
			C317.201,119.201,317.628,119.226,317.845,119.277z M316.486,124.292h0.766l3.809,5.053h2.852c0.115-0.038,0.16-0.096,0.134-0.172
			c-0.472-0.753-1.174-1.716-2.105-2.89c-1.148-1.429-1.888-2.373-2.22-2.833c1.072-0.421,1.659-1.256,1.761-2.507
			c0.077-0.931-0.154-1.774-0.689-2.527c-0.447-0.625-0.935-1.068-1.465-1.33c-0.53-0.262-1.247-0.393-2.154-0.393l-3.158,0.019
			c-0.09,0-0.134,0.033-0.134,0.096v12.46c0,0.051,0.039,0.077,0.115,0.077h2.316c0.064,0,0.096-0.031,0.096-0.096v-4.881
			C316.409,124.305,316.435,124.279,316.486,124.292z"/>
		<path class="st1" d="M355.113,120.1l1.436,4.191h-3.024L355.113,120.1z M356.223,116.712h-2.431c-0.051,0-0.09,0.02-0.115,0.057
			l-4.709,12.48c-0.026,0.076-0.013,0.109,0.039,0.096h2.756l0.976-2.527h4.747l0.996,2.527h2.527c0.14,0,0.185-0.051,0.134-0.153
			l-4.766-12.384C356.35,116.745,356.3,116.712,356.223,116.712z"/>
		<path class="st1" d="M397.915,129.345h-2.393l-6.412-8.69v8.518c0.013,0.089-0.003,0.141-0.047,0.153
			c-0.045,0.013-0.086,0.019-0.125,0.019h-2.259c-0.064,0.013-0.096-0.038-0.096-0.153v-12.384c0-0.064,0.032-0.096,0.096-0.096
			h2.431l6.412,8.537v-8.422c-0.013-0.077,0.026-0.115,0.115-0.115h2.239c0.128,0,0.185,0.039,0.173,0.115v12.403
			C398.049,129.32,398.004,129.358,397.915,129.345z"/>
		<path class="st1" d="M433.066,125.843c-0.779,0.779-1.717,1.167-2.814,1.167c-1.11,0-2.051-0.389-2.823-1.167
			c-0.773-0.779-1.158-1.723-1.158-2.833c0-1.098,0.386-2.035,1.158-2.814c0.772-0.779,1.713-1.168,2.823-1.168
			c1.097,0,2.035,0.389,2.814,1.168c0.778,0.779,1.168,1.716,1.168,2.814C434.234,124.119,433.844,125.064,433.066,125.843z
			 M434.913,118.387c-1.282-1.282-2.829-1.924-4.641-1.924c-1.825,0-3.379,0.641-4.661,1.924c-1.282,1.282-1.924,2.829-1.924,4.642
			c0,1.825,0.641,3.378,1.924,4.661c1.282,1.283,2.836,1.924,4.661,1.924c1.812,0,3.359-0.641,4.641-1.924
			c1.282-1.282,1.924-2.836,1.924-4.661C436.837,121.216,436.195,119.669,434.913,118.387z"/>
		<path class="st1" d="M468.085,120.1l1.436,4.191h-3.024L468.085,120.1z M469.195,116.712h-2.431c-0.052,0-0.09,0.02-0.115,0.057
			l-4.709,12.48c-0.026,0.076-0.013,0.109,0.039,0.096h2.756l0.976-2.527h4.747l0.995,2.527h2.527c0.14,0,0.185-0.051,0.134-0.153
			l-4.766-12.384C469.323,116.745,469.272,116.712,469.195,116.712z"/>
		<path class="st1" d="M510.887,129.345h-2.393l-6.412-8.69v8.518c0.013,0.089-0.004,0.141-0.048,0.153
			c-0.044,0.013-0.086,0.019-0.125,0.019h-2.258c-0.064,0.013-0.096-0.038-0.096-0.153v-12.384c0-0.064,0.032-0.096,0.096-0.096
			h2.431l6.412,8.537v-8.422c-0.013-0.077,0.026-0.115,0.115-0.115h2.24c0.128,0,0.185,0.039,0.172,0.115v12.403
			C511.021,129.32,510.977,129.358,510.887,129.345z"/>
		<path class="st1" d="M542.651,120.1l1.435,4.191h-3.024L542.651,120.1z M543.761,116.712h-2.431c-0.052,0-0.09,0.02-0.115,0.057
			l-4.709,12.48c-0.026,0.076-0.013,0.109,0.039,0.096h2.756l0.976-2.527h4.747l0.995,2.527h2.527c0.14,0,0.184-0.051,0.133-0.153
			l-4.766-12.384C543.888,116.745,543.837,116.712,543.761,116.712z"/>
	</g>
	<g>
		<g>
			<g>
				<path class="st2" d="M379.32,35.047l48.948,0.015c1.631,0,2.951,1.281,2.951,2.929c0,1.595-1.32,2.985-2.956,2.985h-48.937
					c-1.672,0-2.964-1.373-2.964-2.968C376.362,36.36,377.654,35.047,379.32,35.047z"/>
				<path class="st1" d="M428.263,42.821h-48.937c-2.652,0-4.81-2.159-4.81-4.814c0-2.695,2.11-4.806,4.804-4.806l48.949,0.014
					c2.644,0,4.797,2.142,4.797,4.775C433.066,40.655,430.911,42.821,428.263,42.821z M379.32,36.893
					c-0.634,0-1.113,0.479-1.113,1.114c0,0.54,0.428,1.122,1.119,1.122h48.937c0.592,0,1.111-0.532,1.111-1.139
					c0-0.618-0.475-1.084-1.105-1.084L379.32,36.893L379.32,36.893z"/>
			</g>
			<g>
				<path class="st2" d="M396.415,29.541c-1.608,0-3.566,1.333-4.351,2.962l-34.555,71.129c-0.784,1.63-0.11,2.962,1.498,2.961
					l11.701-0.005c1.61-0.002,3.568-1.335,4.353-2.964l34.549-71.12c0.784-1.629,0.112-2.962-1.497-2.962H396.415z"/>
				<path class="st1" d="M359.004,108.439c-1.35,0-2.494-0.587-3.138-1.612c-0.7-1.113-0.707-2.569-0.021-3.995l34.558-71.135
					c1.098-2.279,3.683-4.001,6.011-4.001h11.698c1.352,0,2.496,0.587,3.14,1.613c0.699,1.113,0.706,2.569,0.019,3.996
					l-34.552,71.125c-1.098,2.278-3.684,4.001-6.012,4.004l-11.702,0.005C359.006,108.439,359.004,108.439,359.004,108.439z
					 M396.415,31.387c-0.816,0-2.168,0.837-2.688,1.917l-34.558,71.134c-0.059,0.123-0.095,0.227-0.116,0.308l11.653-0.005
					c0.816-0.001,2.17-0.84,2.691-1.92l34.552-71.125c0.06-0.124,0.096-0.228,0.116-0.31H396.415z"/>
			</g>
			<g>
				<path class="st2" d="M406.914,53.368L406.914,53.368l1.508-3.13c0.785-1.629,2.743-2.963,4.352-2.963h11.685
					c1.609,0,2.281,1.334,1.497,2.963l-1.485,3.08l0,0"/>
				<path class="st1" d="M408.577,54.169l-3.325-1.602l1.508-3.13c1.101-2.285,3.687-4.008,6.015-4.008h11.685
					c1.351,0,2.496,0.588,3.14,1.613c0.699,1.113,0.706,2.569,0.019,3.997l-1.485,3.08l-3.325-1.603l1.485-3.08
					c0.061-0.127,0.098-0.233,0.119-0.316h-11.637c-0.816,0-2.168,0.838-2.689,1.918L408.577,54.169z"/>
			</g>
			<g>
				<path class="st2" d="M421.528,59.415L408.67,85.848c-0.784,1.628-2.813,3.905-4.505,5.057l-11.249,7.657
					c-1.693,1.153-4.392,2.095-6.001,2.095l-38.478,0.011c-1.609,0-3.399-0.944-3.977-2.098l-3.843-7.659
					c-0.579-1.155-0.41-3.432,0.374-5.06l8.671-17.76c0.785-1.629,2.81-3.906,4.503-5.059l11.222-7.653
					c1.692-1.154,4.391-2.098,5.999-2.098l63.23-0.011c1.608,0,3.403,0.939,3.991,2.09l3.914,7.668
					c0.586,1.149,0.424,3.423-0.361,5.052l-17.135,35.545c-0.785,1.629-2.743,2.962-4.351,2.964l-11.56,0.005
					c-1.609,0.001-2.283-1.331-1.498-2.961l19.999-41.485c0.784-1.629,0.006-2.954-1.602-2.954l0.093-0.006c1.583,0-4.35,0-9.147,0
					l-42.648,0.011c-1.606,0-3.565,1.333-4.35,2.961l-14.385,29.616c-0.785,1.629-0.112,2.962,1.496,2.962l26.863-0.011
					c1.609,0,3.566-1.333,4.353-2.962l15.712-32.351"/>
				<path class="st1" d="M409.111,108.439c-1.351,0-2.495-0.587-3.139-1.612c-0.7-1.113-0.707-2.569-0.021-3.995l19.999-41.486
					c0.061-0.127,0.094-0.23,0.11-0.305c-0.015-0.001-0.032-0.001-0.05-0.001v-0.007h-3.218L410.33,86.655
					c-0.917,1.904-3.171,4.444-5.125,5.775l-11.25,7.657c-2.022,1.377-5.048,2.416-7.039,2.416l-38.478,0.011
					c-2.319,0-4.738-1.341-5.628-3.117l-3.842-7.658c-0.948-1.892-0.521-4.858,0.361-6.689l8.675-17.769
					c0.917-1.904,3.169-4.444,5.123-5.774l11.221-7.652c2.022-1.379,5.049-2.419,7.039-2.419l63.229-0.012
					c2.311,0,4.734,1.332,5.635,3.097l3.914,7.668c0.963,1.888,0.542,4.857-0.343,6.692l-17.135,35.545
					c-1.099,2.282-3.684,4.006-6.012,4.008l-11.561,0.006C409.114,108.439,409.112,108.439,409.111,108.439z M426.366,57.361
					c1.228,0.095,2.26,0.682,2.865,1.646c0.7,1.113,0.716,2.55,0.046,3.942l-19.998,41.485c-0.061,0.126-0.097,0.231-0.118,0.313
					l11.513-0.005c0.815-0.001,2.168-0.839,2.689-1.919l17.135-35.545c0.598-1.24,0.642-2.898,0.38-3.411l-3.914-7.668
					c-0.217-0.426-1.323-1.083-2.346-1.083l-63.229,0.011c-1.111,0-3.468,0.76-4.96,1.777l-11.222,7.653
					c-1.421,0.968-3.233,2.993-3.88,4.335L342.65,86.66c-0.595,1.234-0.643,2.904-0.383,3.423l3.842,7.658
					c0.213,0.425,1.308,1.079,2.327,1.079l38.478-0.011c1.112,0,3.47-0.759,4.962-1.775l11.25-7.657
					c1.421-0.968,3.235-2.993,3.88-4.332l11.681-24.014l-13.427,0.003l-15.315,31.536c-1.1,2.279-3.686,4.001-6.013,4.001
					l-26.862,0.011c-1.352,0-2.497-0.587-3.141-1.613c-0.699-1.113-0.706-2.569-0.018-3.995l14.388-29.622
					c1.1-2.279,3.685-4,6.011-4l52.056-0.011V57.361z M401.157,61.037l-26.847,0.007c-0.815,0-2.167,0.837-2.689,1.917
					l-14.387,29.621c-0.06,0.124-0.096,0.228-0.116,0.309l26.814-0.011c0.817,0,2.17-0.838,2.691-1.918L401.157,61.037z"/>
			</g>
		</g>
		<g>
			<g>
				<path class="st2" d="M144.162,64.968c-1.608,0-2.282-1.333-1.497-2.962l8.566-17.77c0.786-1.629,2.744-2.96,4.352-2.96h11.591
					c1.608,0,2.281,1.332,1.496,2.96l-5.707,11.84c-0.786,1.628-0.112,2.962,1.496,2.962h55.249c1.609,0,3.404,0.939,3.989,2.088
					l3.915,7.669c0.587,1.149,0.424,3.422-0.361,5.052l-8.567,17.768c-0.784,1.629-2.813,3.902-4.507,5.052l-11.316,7.68
					c-1.694,1.15-4.395,2.089-6.003,2.089h-46.312c-1.607,0-2.916-1.327-2.916-2.951c0-1.648,1.309-2.978,2.916-2.978h43.524
					c1.608,0,3.566-1.334,4.353-2.962l14.276-29.615c0.784-1.629,0.112-2.962-1.497-2.962H144.162z"/>
				<path class="st1" d="M196.859,108.283h-46.312c-2.626,0-4.762-2.152-4.762-4.797c0-2.66,2.136-4.824,4.762-4.824h43.524
					c0.816,0,2.168-0.838,2.691-1.92l14.276-29.614c0.061-0.126,0.097-0.231,0.119-0.315h-66.994c-1.352,0-2.497-0.588-3.141-1.613
					c-0.7-1.113-0.706-2.569-0.019-3.995l8.566-17.771c1.101-2.283,3.687-4.004,6.015-4.004h11.591c1.352,0,2.496,0.587,3.14,1.613
					c0.699,1.113,0.706,2.568,0.018,3.994l-5.707,11.841c-0.061,0.126-0.098,0.232-0.119,0.315h55.201
					c2.312,0,4.734,1.33,5.634,3.095l3.915,7.668c0.964,1.885,0.543,4.855-0.342,6.692l-8.566,17.769
					c-0.919,1.91-3.174,4.448-5.134,5.777l-11.315,7.681C201.876,107.248,198.85,108.283,196.859,108.283z M150.547,102.354
					c-0.59,0-1.07,0.508-1.07,1.132c0,0.609,0.48,1.105,1.07,1.105h46.312c1.113,0,3.473-0.757,4.966-1.771l11.316-7.68
					c1.424-0.965,3.236-2.986,3.88-4.324l8.567-17.77c0.598-1.24,0.642-2.898,0.38-3.41l-3.915-7.669
					c-0.217-0.426-1.322-1.081-2.346-1.081h-55.249c-1.352,0-2.496-0.589-3.141-1.615c-0.699-1.114-0.706-2.57-0.017-3.996
					l5.706-11.84c0.061-0.126,0.097-0.231,0.118-0.313h-11.542c-0.817,0-2.169,0.837-2.689,1.916l-8.566,17.77
					c-0.061,0.126-0.097,0.232-0.119,0.315h66.994c1.352,0,2.496,0.588,3.14,1.613c0.699,1.113,0.706,2.569,0.019,3.995
					l-14.276,29.616c-1.103,2.285-3.689,4.007-6.015,4.007H150.547z M144.006,63.106L144.006,63.106L144.006,63.106z
					 M164.303,57.176L164.303,57.176L164.303,57.176z"/>
			</g>
			<g>
				<path class="st2" d="M189.27,29.437c-1.608,0-3.565,1.333-4.35,2.962l-5.725,11.875c-0.785,1.628-0.112,2.962,1.495,2.962
					h11.734c1.609,0,3.566-1.333,4.352-2.962l5.724-11.875c0.786-1.629,0.113-2.962-1.495-2.962H189.27z"/>
				<path class="st1" d="M192.424,49.082H180.69c-1.351,0-2.495-0.587-3.139-1.613c-0.699-1.113-0.706-2.57-0.018-3.996
					l5.725-11.875c1.101-2.284,3.686-4.006,6.013-4.006h11.733c1.352,0,2.496,0.588,3.14,1.613c0.699,1.113,0.706,2.57,0.018,3.996
					l-5.724,11.875C197.337,47.36,194.751,49.082,192.424,49.082z M180.74,45.39h11.684c0.816,0,2.168-0.837,2.689-1.917
					l5.724-11.875c0.061-0.126,0.098-0.232,0.119-0.315H189.27c-0.815,0-2.167,0.837-2.688,1.917l-5.725,11.875
					C180.797,45.202,180.761,45.308,180.74,45.39z"/>
			</g>
		</g>
		<g>
			<g>
				<path class="st2" d="M74.704,53.701l10.344-21.347c0.785-1.629,2.743-2.961,4.352-2.961h11.685c1.609,0,2.281,1.332,1.497,2.961
					L92.349,53.263"/>
				<path class="st1" d="M76.365,54.506l-3.322-1.609L83.387,31.55c1.098-2.28,3.684-4.002,6.012-4.002h11.685
					c1.352,0,2.496,0.588,3.14,1.613c0.699,1.113,0.706,2.568,0.019,3.995L94.007,54.074l-3.316-1.622l10.232-20.908
					c0.058-0.12,0.093-0.223,0.114-0.304H89.399c-0.817,0-2.169,0.837-2.689,1.916L76.365,54.506z"/>
			</g>
			<g>
				<path class="st2" d="M52.265,106.437c-1.608,0-3.397-0.943-3.976-2.098l-3.84-7.662c-0.58-1.156-0.411-3.432,0.374-5.062
					L56.19,68.075c0.785-1.629,2.812-3.906,4.503-5.061l11.22-7.651c1.691-1.155,4.391-2.097,5.998-2.097h49.151
					c1.578,0,2.937,1.264,2.937,2.987c0,1.55-1.359,2.927-2.927,2.929H80.834c-1.608,0-3.566,1.333-4.351,2.962L59.399,97.545
					c-0.785,1.628-0.112,2.962,1.495,2.962h70.985c1.577,0,2.929,1.33,2.929,3.013c0,1.589-1.352,2.916-2.932,2.916H52.265z"/>
				<path class="st1" d="M131.876,108.283H52.265c-2.316,0-4.735-1.34-5.626-3.117l-3.841-7.662
					c-0.948-1.889-0.522-4.857,0.362-6.69l11.368-23.542c0.92-1.909,3.172-4.45,5.125-5.783l11.22-7.651
					c2.018-1.378,5.043-2.418,7.037-2.418h49.152c2.638,0,4.783,2.168,4.783,4.833c0,2.585-2.185,4.772-4.771,4.775h-46.24
					c-0.815,0-2.168,0.837-2.689,1.918L61.061,98.348c-0.061,0.126-0.097,0.231-0.118,0.314h70.936c2.633,0,4.775,2.18,4.775,4.859
					C136.654,106.102,134.465,108.283,131.876,108.283z M77.911,55.112c-1.113,0-3.469,0.759-4.957,1.775l-11.221,7.651
					c-1.421,0.969-3.234,2.996-3.88,4.337L46.485,92.418c-0.599,1.243-0.647,2.912-0.387,3.43l3.841,7.663
					c0.212,0.424,1.307,1.079,2.326,1.079h79.611c0.568,0,1.087-0.51,1.087-1.07c0-0.698-0.56-1.168-1.084-1.168H60.894
					c-1.351,0-2.495-0.588-3.139-1.613c-0.699-1.114-0.706-2.57-0.018-3.997l17.084-35.402c1.101-2.283,3.687-4.005,6.014-4.005
					h46.238c0.535-0.001,1.082-0.548,1.082-1.084c0-0.741-0.563-1.141-1.092-1.141H77.911z"/>
			</g>
		</g>
		<g>
			<path class="st2" d="M287.467,91.469c-0.808,1.659-2.884,3.978-4.613,5.152l-11.507,7.814c-1.73,1.174-4.486,2.134-6.122,2.134
				h-23.86c-1.638,0-3.457-0.961-4.041-2.139l-3.877-7.806c-0.584-1.176-0.402-3.497,0.407-5.156l15.413-31.719
				c0.808-1.661,2.884-3.98,4.612-5.154l11.472-7.797c1.728-1.175,4.484-2.137,6.122-2.137h59.403c1.638,0,3.462,0.958,4.054,2.129
				l3.953,7.812c0.592,1.171,0.414,3.486-0.394,5.147l-21.295,43.801c-0.808,1.66-2.809,3.018-4.447,3.018h-11.776
				c-1.638,0-2.317-1.358-1.508-3.018l24.235-49.843c0.808-1.659,0.129-3.017-1.51-3.017h-47.765c-1.639,0-3.639,1.358-4.448,3.017
				L248.681,97.51c-0.808,1.66-0.128,3.019,1.51,3.019h12.012c1.637,0,3.639-1.358,4.448-3.019l17.828-36.654
				c0.807-1.66,2.809-3.018,4.447-3.018h11.919c1.639,0,2.318,1.358,1.51,3.018L287.467,91.469z"/>
			<path class="st1" d="M312.748,108.415h-11.776c-1.365,0-2.519-0.593-3.166-1.628c-0.704-1.126-0.704-2.6-0.001-4.043
				l24.235-49.842c0.075-0.154,0.114-0.275,0.134-0.364h-47.749c-0.843,0-2.245,0.865-2.788,1.979l-21.295,43.8
				c-0.075,0.155-0.115,0.277-0.134,0.366h11.997c0.843,0,2.245-0.866,2.788-1.981l17.827-36.653
				c1.124-2.313,3.749-4.057,6.107-4.057h11.919c1.366,0,2.52,0.594,3.168,1.629c0.704,1.126,0.705,2.6,0.002,4.043l-14.889,30.615
				c-0.945,1.94-3.245,4.519-5.235,5.871l-11.507,7.814c-2.061,1.399-5.139,2.453-7.159,2.453h-23.86
				c-2.352,0-4.801-1.36-5.695-3.164l-3.876-7.805c-0.952-1.919-0.504-4.929,0.401-6.786l15.412-31.717
				c0.945-1.942,3.244-4.522,5.235-5.875l11.472-7.797c2.059-1.4,5.137-2.456,7.159-2.456h59.403c2.345,0,4.796,1.351,5.701,3.142
				l3.952,7.812c0.967,1.913,0.525,4.925-0.381,6.787l-21.294,43.801C317.729,106.672,315.103,108.415,312.748,108.415z
				 M300.989,104.724h11.759c0.843,0,2.244-0.865,2.787-1.98l21.294-43.801c0.62-1.275,0.673-2.98,0.406-3.507l-3.952-7.812
				c-0.228-0.45-1.339-1.116-2.407-1.116h-59.403c-1.138,0-3.554,0.777-5.084,1.817l-11.472,7.797
				c-1.457,0.99-3.322,3.063-3.989,4.435l-15.413,31.718c-0.623,1.278-0.679,2.994-0.414,3.529l3.877,7.805
				c0.223,0.45,1.323,1.114,2.388,1.114h23.86c1.138,0,3.554-0.776,5.086-1.816l11.507-7.813c1.457-0.99,3.321-3.061,3.99-4.433
				l14.887-30.613c0.075-0.155,0.115-0.277,0.134-0.366h-11.904c-0.844,0-2.245,0.865-2.787,1.98l-17.828,36.654
				c-1.127,2.314-3.752,4.058-6.107,4.058h-12.012c-1.365,0-2.52-0.594-3.167-1.629c-0.704-1.126-0.706-2.599-0.003-4.043
				l21.296-43.801c1.126-2.313,3.752-4.055,6.107-4.055h47.765c1.366,0,2.52,0.593,3.168,1.629c0.704,1.126,0.704,2.599,0.001,4.042
				l-24.235,49.842C301.048,104.514,301.009,104.635,300.989,104.724z M300.802,104.705L300.802,104.705L300.802,104.705z"/>
		</g>
		<g>
			<g>
				<path class="st2" d="M499.051,44.968c1.637,0,2.96-1.341,2.96-2.974c0-1.609-1.323-2.943-2.946-2.943h-38.163
					c-1.608,0-2.929,1.333-2.929,2.943c0,1.634,1.321,2.974,2.929,2.974H499.051z"/>
				<path class="st1" d="M499.051,46.813h-38.15c-2.632,0-4.774-2.162-4.774-4.82c0-2.641,2.142-4.789,4.774-4.789h38.163
					c2.642,0,4.792,2.148,4.792,4.789C503.856,44.651,501.701,46.813,499.051,46.813z M460.901,40.897
					c-0.587,0-1.082,0.502-1.082,1.097c0,0.612,0.496,1.128,1.082,1.128h38.15c0.614,0,1.114-0.506,1.114-1.128
					c0-0.595-0.504-1.097-1.1-1.097H460.901z"/>
			</g>
			<g>
				<path class="st2" d="M544.252,45.981c1.609,0,3.568-1.334,4.351-2.962l4.688-9.673c0.785-1.629,0.112-2.962-1.495-2.962h-11.639
					c-1.608,0-3.567,1.333-4.351,2.962l-4.688,9.673c-0.786,1.628-0.113,2.962,1.496,2.962H544.252z"/>
				<path class="st1" d="M544.252,47.827h-11.637c-1.352,0-2.498-0.588-3.142-1.615c-0.699-1.113-0.705-2.57-0.017-3.996
					l4.689-9.675c1.098-2.28,3.684-4.003,6.012-4.003h11.639c1.351,0,2.495,0.587,3.139,1.613c0.699,1.113,0.706,2.57,0.018,3.996
					l-4.69,9.677C549.167,46.104,546.581,47.827,544.252,47.827z M532.662,44.135h11.59c0.817,0,2.168-0.837,2.688-1.917
					l4.691-9.677c0.06-0.125,0.096-0.229,0.117-0.311h-11.59c-0.816,0-2.168,0.837-2.689,1.917l-4.69,9.677
					C532.719,43.949,532.683,44.053,532.662,44.135z"/>
			</g>
			<g>
				<path class="st2" d="M517.604,71.182l2.959-6.138l0,0l4.373-8.953c0.785-1.628,2.743-2.96,4.352-2.96h11.635
					c1.608,0,2.282,1.332,1.495,2.96l-4.398,8.923l0,0l-2.919,6.072"/>
				<path class="st1" d="M519.267,71.984l-3.325-1.603l7.337-15.099c1.097-2.275,3.682-3.997,6.01-3.997h11.635
					c1.352,0,2.498,0.589,3.141,1.615c0.698,1.114,0.704,2.569,0.015,3.995l-4.405,8.936l-2.912,6.056l-3.327-1.6l2.92-6.072
					l4.406-8.939c0.057-0.119,0.092-0.219,0.112-0.299h-11.586c-0.816,0-2.168,0.837-2.689,1.917L519.267,71.984z"/>
			</g>
			<g>
				<path class="st2" d="M535.101,71.086l-9.963,20.538c-0.786,1.628-2.811,3.908-4.5,5.063l-11.199,7.657
					c-1.69,1.156-4.388,2.101-5.996,2.101H485.89c-1.607,0-3.401-0.941-3.985-2.091l-3.894-7.676
					c-0.584-1.151-0.418-3.426,0.368-5.054l5.706-11.84c0.786-1.629,2.813-3.903,4.508-5.052l11.284-7.666
					c1.694-1.15,4.395-2.089,6.003-2.089h37.754c1.634,0.001,2.974,1.322,2.964,2.972c-0.01,1.594-1.33,2.945-2.966,2.945H509.56
					c-2.289,0-4.245,1.333-5.032,2.961l-11.422,23.7c-0.787,1.629-0.113,2.962,1.496,2.962h5.844c1.608,0,3.566-1.333,4.351-2.962
					l12.807-26.373"/>
				<path class="st1" d="M503.441,108.291H485.89c-2.313,0-4.733-1.333-5.63-3.102l-3.895-7.676
					c-0.958-1.888-0.534-4.857,0.352-6.692l5.705-11.838c0.923-1.914,3.179-4.452,5.135-5.779l11.283-7.665
					c2.022-1.373,5.049-2.409,7.04-2.409h37.755c1.294,0.001,2.507,0.506,3.417,1.422c0.906,0.911,1.4,2.121,1.392,3.406
					c-0.017,2.636-2.175,4.78-4.812,4.78h-7.282l-9.552,19.691c-0.921,1.907-3.17,4.448-5.12,5.781l-11.199,7.657
					C508.46,107.249,505.434,108.291,503.441,108.291z M505.88,66.823c-1.113,0-3.474,0.758-4.966,1.771l-11.284,7.666
					c-1.422,0.964-3.236,2.986-3.883,4.328l-5.705,11.839c-0.599,1.242-0.646,2.903-0.385,3.417l3.894,7.676
					c0.215,0.424,1.317,1.081,2.339,1.081h17.551c1.111,0,3.466-0.761,4.954-1.778l11.199-7.658c1.419-0.97,3.232-2.998,3.88-4.341
					l8.772-18.082H518.9l-12.442,25.622c-1.098,2.279-3.684,4.002-6.012,4.002h-5.844c-1.353,0-2.498-0.589-3.142-1.615
					c-0.699-1.113-0.704-2.569-0.016-3.996l11.422-23.698c1.158-2.397,3.848-4.006,6.694-4.006h34.072
					c0.604,0,1.117-0.508,1.121-1.11c0.001-0.294-0.112-0.573-0.32-0.782c-0.213-0.214-0.497-0.332-0.8-0.333H505.88z
					 M494.649,98.672h5.797c0.816,0,2.168-0.838,2.689-1.918l11.662-24.014h-5.237c-1.603,0-2.909,0.965-3.369,1.918l-11.422,23.698
					C494.707,98.483,494.67,98.589,494.649,98.672z"/>
			</g>
			<g>
				<path class="st2" d="M470.002,64.977c1.608,0,3.566-1.333,4.351-2.962l14.399-29.651c0.784-1.629,0.112-2.962-1.497-2.962
					h-11.699c-1.608,0-3.566,1.333-4.352,2.962l-14.397,29.651c-0.785,1.629-0.113,2.962,1.495,2.962H470.002z"/>
				<path class="st1" d="M470.002,66.823h-11.7c-1.351,0-2.495-0.588-3.139-1.613c-0.699-1.113-0.706-2.569-0.018-3.996l14.4-29.656
					c1.1-2.279,3.685-4.002,6.012-4.002h11.699c1.351,0,2.496,0.588,3.14,1.613c0.699,1.113,0.706,2.569,0.019,3.996l-14.401,29.656
					C474.915,65.101,472.33,66.823,470.002,66.823z M458.351,63.131h11.651c0.816,0,2.168-0.837,2.689-1.917l14.401-29.656
					c0.06-0.124,0.096-0.228,0.116-0.31h-11.652c-0.816,0-2.168,0.838-2.689,1.918l-14.4,29.656
					C458.408,62.945,458.372,63.05,458.351,63.131z"/>
			</g>
		</g>
	</g>
</g>
<g>
</g>
<g>
</g>
<g>
</g>
<g>
</g>
<g>
</g>
<g>
</g>
<g>
</g>
<g>
</g>
<g>
</g>
<g>
</g>
<g>
</g>
</svg>
